<svg xmlns="http://www.w3.org/2000/svg" xmlns:xlink="http://www.w3.org/1999/xlink" width="24" height="24"><defs><path id="a" d="m11.363 16.95 2.086 2.086-5.057 5.058-3.008.804.922-2.89 5.057-5.058Zm7.013-11.327 6.364 6.364a1 1 0 0 1 0 1.414l-.373.373-3.083.254-2.853 2.853-.032 3.33a1 1 0 0 1-1.707.698l-7.254-7.253a1 1 0 0 1 .691-1.707l3.39-.055 2.85-2.851.22-3.048.372-.372a1 1 0 0 1 1.415 0Z"/></defs><g fill="none" fill-rule="evenodd" transform="translate(-3 -3)"><mask id="b" fill="#fff"><use xlink:href="#a"/></mask><use xlink:href="#a" fill="#5B5B5B" fill-rule="nonzero"/><g fill="#5B5B5B" mask="url(#b)"><path d="M-1 2h30v30H-1z"/></g></g></svg>