<svg xmlns="http://www.w3.org/2000/svg" xmlns:xlink="http://www.w3.org/1999/xlink" width="24" height="24"><defs><path id="a" d="M16 6h-2v3h2V6Zm0 15h-2v3h2v-3Zm0-9h-2v6h2v-6Zm0-6h6.188c1.493 0 2.715.97 2.806 2.196l.006.148v13.312c0 1.245-1.164 2.263-2.635 2.34l-.177.004H16v3h-2v-3H7.812c-1.493 0-2.715-.97-2.806-2.196L5 21.656V8.344c0-1.245 1.164-2.263 2.635-2.34L7.813 6H14V3h2v3Z"/></defs><g fill="none" fill-rule="evenodd" transform="translate(-3 -3)"><mask id="b" fill="#fff"><use xlink:href="#a"/></mask><use xlink:href="#a" fill="#000"/><g fill="#5B5B5B" mask="url(#b)"><path d="M0 0h30v30H0z"/></g></g></svg>